# xmcd
#
# Track frame offsets:
#	150
#	19162
#	39945
#	57152
#	79479
#	88401
#	108363
#	123036
#	139335
#	174325
#
# Disc length: 2530 seconds
#
# Revision: 0
# Processed by: cddbd v1.5.2PL0 Copyright (c) Steve Scherf et al.
# Submitted via: EZCDAudioConverter 6.0.5.1
#
DISCID=7f09e00a
DTITLE=The Harris Brothers - Suitcase Blues
DYEAR=2011
DGENRE=Blues
TTITLE0=Johnson City Blues
TTITLE1=Rag Mama Rag
TTITLE2=Freight Train
TTITLE3=Untrue Blues
TTITLE4=Knoxville Rag
TTITLE5=Roll and Tumble Blues
TTITLE6=Twelve Gates to the City
TTITLE7=Hesitation Blues
TTITLE8=Honey Bee
TTITLE9=If You're Ever in Oklahoma
EXTD=
EXTT0=
EXTT1=
EXTT2=
EXTT3=
EXTT4=
EXTT5=
EXTT6=
EXTT7=
EXTT8=
EXTT9=
PLAYORDER=
